<?xml version="1.0" encoding="UTF-8" standalone="no"?>
<svg xmlns="http://www.w3.org/2000/svg" viewBox="0 0 170 170">
  <path
     d="M 65.896299,3.5732404 7.5889203,24.164676 V 142.41332 L 57.885768,167.12305 97.64316,149.44132 c 4.82843,5.86455 18.01647,9.80079 32.83776,9.80111 19.18495,2.6e-4 34.73728,-6.50899 34.7356,-14.53818 0.0243,-4.25815 0.10059,-6.78736 0.0812,-10.73652 -9.9e-4,-7.56734 -13.82039,-13.77905 -31.47188,-14.46782 -1.30043,-0.0633 -2.60836,-0.0951 -3.91736,-0.0952 -5.0088,9e-5 -9.95692,0.46416 -14.49738,1.35965 l 0.46203,-94.246672 z M 64.788857,8.8555196 104.70659,27.709402 58.524447,45.809989 17.607719,25.890632 Z m 44.536513,25.8546574 0.43276,91.097553 -15.198376,7.67192 0.187078,11.63022 -31.557959,13.93252 -0.23535,-105.298166 z m 52.08993,104.046553 -0.19278,5.87923 c -0.17863,6.98807 -19.7274,11.36524 -31.02109,11.3077 -8.6586,0.31601 -30.728896,-3.12191 -30.737087,-11.3077 v -5.50735 c 5.916857,4.80356 17.649667,9.35815 30.444077,9.35867 13.51267,-2.3e-4 25.96171,-4.51268 31.50688,-9.73055 z"
     id="TabAntiWarpingLogo" />
</svg>
