<?xml version="1.0" encoding="UTF-8" standalone="no"?>
<svg xmlns="http://www.w3.org/2000/svg" viewBox="0 0 170 170">
  <path
     id="path893"
     style="fill:#000000;stroke-width:1.10579"
     d="M 65.896299,3.5732404 7.5889203,24.164676 V 142.41332 L 57.885768,167.12305 97.64316,149.44132 c 4.82843,5.86455 18.01647,9.80079 32.83776,9.80111 19.18495,2.6e-4 34.73728,-6.50899 34.7356,-14.53818 0.0243,-4.25815 0.10059,-6.78736 0.0812,-10.73652 -9.9e-4,-7.56734 -13.82039,-13.77905 -31.47188,-14.46782 a 34.340123,14.541091 0 0 0 -3.91736,-0.0952 34.340123,14.541091 0 0 0 -14.49738,1.35965 l 0.46203,-94.246672 z M 67.102162,8.2771934 109.52598,27.902177 59.488324,46.773866 17.607719,25.890632 Z m 42.223208,26.8185346 0.43276,90.712002 -15.198376,7.47914 0.187078,11.823 -33.678489,16.05305 -0.813676,-107.611471 z m 51.89715,104.817652 v 4.72258 c -0.17863,6.98807 -19.7274,11.36524 -31.02109,11.3077 -8.6586,0.31601 -30.728896,-3.12191 -30.737087,-11.3077 v -3.96515 a 34.340123,14.541091 0 0 0 30.444077,7.81647 34.340123,14.541091 0 0 0 31.3141,-8.5739 z" />
</svg>
