<?xml version="1.0" standalone="no"?>
<!DOCTYPE svg PUBLIC "-//W3C//DTD SVG 20010904//EN"
 "http://www.w3.org/TR/2001/REC-SVG-20010904/DTD/svg10.dtd">
<svg version="1.0" xmlns="http://www.w3.org/2000/svg"
 width="170.000000pt" height="186.000000pt" viewBox="0 0 170.000000 186.000000"
 preserveAspectRatio="xMidYMid meet">
<metadata>
Created by potrace 1.16, written by Peter Selinger 2001-2019
</metadata>
<g transform="translate(0.000000,186.000000) scale(0.100000,-0.100000)"
fill="#000000" stroke="none">
<path d="M655 1769 c-275 -3 -502 -7 -504 -8 -6 -2 8 -1086 15 -1251 l7 -136
333 4 334 4 0 -28 c0 -48 44 -127 95 -172 145 -128 393 -117 530 24 53 54 75
115 75 209 0 108 -22 168 -84 230 -57 57 -129 90 -220 101 l-53 6 -6 232 c-4
127 -7 339 -8 471 0 132 -4 258 -7 280 l-7 40 -500 -6z"/>
</g>
</svg>
